<?xml version="1.0" encoding="UTF-8" standalone="no"?>
<svg
   version="1.1"
   viewBox="0 0 51.001167 51.001167"
   fill="none"
   stroke="none"
   stroke-linecap="square"
   stroke-miterlimit="10"
   id="svg10"
   sodipodi:docname="inherent_logo.svg"
   width="51.001167"
   height="51.001167"
   inkscape:version="1.4.2 (ebf0e940, 2025-05-08)"
   xmlns:inkscape="http://www.inkscape.org/namespaces/inkscape"
   xmlns:sodipodi="http://sodipodi.sourceforge.net/DTD/sodipodi-0.dtd"
   xmlns="http://www.w3.org/2000/svg"
   xmlns:svg="http://www.w3.org/2000/svg">
  <defs
     id="defs10" />
  <sodipodi:namedview
     id="namedview10"
     pagecolor="#ffffff"
     bordercolor="#666666"
     borderopacity="1.0"
     inkscape:showpageshadow="2"
     inkscape:pageopacity="0.0"
     inkscape:pagecheckerboard="false"
     inkscape:deskcolor="#d1d1d1"
     showgrid="false"
     inkscape:zoom="0.86041667"
     inkscape:cx="464.89104"
     inkscape:cy="72.639225"
     inkscape:window-width="1152"
     inkscape:window-height="1186"
     inkscape:window-x="0"
     inkscape:window-y="30"
     inkscape:window-maximized="0"
     inkscape:current-layer="g10" />
  <clipPath
     id="g3b1f5dc171d_0_0.0">
    <path
       d="M 0,0 H 960 V 540 H 0 Z"
       clip-rule="nonzero"
       id="path1" />
  </clipPath>
  <g
     clip-path="url(#g3b1f5dc171d_0_0.0)"
     id="g10"
     transform="translate(-15.546057,-11.938272)">
    <path
       fill="#000000"
       fill-opacity="0"
       d="m 16.224537,37.438854 v 0 c 0,-13.708868 11.113234,-24.822102 24.822102,-24.822102 v 0 c 6.583233,0 12.896831,2.615179 17.55188,7.270226 4.655048,4.655047 7.270225,10.968647 7.270225,17.551876 v 0 c 0,13.70887 -11.113235,24.822105 -24.822105,24.822105 v 0 c -13.708868,0 -24.822102,-11.113235 -24.822102,-24.822105 z"
       fill-rule="evenodd"
       id="path3" />
    <path
       stroke="#e8e8e8"
       stroke-width="1.35696"
       stroke-linejoin="round"
       stroke-linecap="butt"
       d="m 16.224537,37.438854 v 0 c 0,-13.708868 11.113234,-24.822102 24.822102,-24.822102 v 0 c 6.583233,0 12.896831,2.615179 17.55188,7.270226 4.655048,4.655047 7.270225,10.968647 7.270225,17.551876 v 0 c 0,13.70887 -11.113235,24.822105 -24.822105,24.822105 v 0 c -13.708868,0 -24.822102,-11.113235 -24.822102,-24.822105 z"
       fill-rule="evenodd"
       id="path4" />
    <path
       fill="#000000"
       fill-opacity="0"
       d="m 27.349121,48.563442 v 0 c 0,-7.56493 6.132587,-13.697517 13.697517,-13.697517 v 0 c 3.632809,0 7.116825,1.443127 9.685608,4.01191 2.568783,2.568782 4.011913,6.052799 4.011913,9.685608 v 0 c 0,7.56493 -6.132587,13.697517 -13.697521,13.697517 v 0 c -7.56493,0 -13.697517,-6.132588 -13.697517,-13.697518 z"
       fill-rule="evenodd"
       id="path5" />
    <path
       stroke="#e8e8e8"
       stroke-width="1.35696"
       stroke-linejoin="round"
       stroke-linecap="butt"
       d="m 27.349121,48.563442 v 0 c 0,-7.56493 6.132587,-13.697517 13.697517,-13.697517 v 0 c 3.632809,0 7.116825,1.443127 9.685608,4.01191 2.568783,2.568782 4.011913,6.052799 4.011913,9.685608 v 0 c 0,7.56493 -6.132587,13.697517 -13.697521,13.697517 v 0 c -7.56493,0 -13.697517,-6.132588 -13.697517,-13.697518 z"
       fill-rule="evenodd"
       id="path6" />
    <path
       fill="#000000"
       fill-opacity="0"
       d="m 34.765514,55.97983 v 0 c 0,-3.468971 2.812157,-6.281128 6.281124,-6.281128 v 0 c 1.665859,0 3.263489,0.661762 4.441429,1.839699 1.17794,1.17794 1.839699,2.77557 1.839699,4.441429 v 0 c 0,3.468971 -2.812157,6.281128 -6.281128,6.281128 v 0 c -3.468968,0 -6.281124,-2.812157 -6.281124,-6.281128 z"
       fill-rule="evenodd"
       id="path7" />
    <path
       stroke="#e8e8e8"
       stroke-width="1.35696"
       stroke-linejoin="round"
       stroke-linecap="butt"
       d="m 34.765514,55.97983 v 0 c 0,-3.468971 2.812157,-6.281128 6.281124,-6.281128 v 0 c 1.665859,0 3.263489,0.661762 4.441429,1.839699 1.17794,1.17794 1.839699,2.77557 1.839699,4.441429 v 0 c 0,3.468971 -2.812157,6.281128 -6.281128,6.281128 v 0 c -3.468968,0 -6.281124,-2.812157 -6.281124,-6.281128 z"
       fill-rule="evenodd"
       id="path8" />
    <path
       fill="#000000"
       fill-opacity="0"
       d="M 41.04664,62.26096 V 12.616753"
       fill-rule="evenodd"
       id="path9" />
    <path
       stroke="#e8e8e8"
       stroke-width="1"
       stroke-linejoin="round"
       stroke-linecap="butt"
       d="M 41.04664,62.26096 V 12.616753"
       fill-rule="evenodd"
       id="path10" />
  </g>
</svg>
